<?xml version="1.0" encoding="UTF-8" standalone="no"?>
<!DOCTYPE svg PUBLIC "-//W3C//DTD SVG 1.1//EN"
 "http://www.w3.org/Graphics/SVG/1.1/DTD/svg11.dtd">
<!-- Generated by graphviz version 2.40.1 (20161225.0304)
 -->
<!-- Title: dependencies Pages: 1 -->
<svg width="970pt" height="355pt"
 viewBox="0.00 0.00 970.00 355.00" xmlns="http://www.w3.org/2000/svg" xmlns:xlink="http://www.w3.org/1999/xlink">
<g id="graph0" class="graph" transform="scale(1 1) rotate(0) translate(4 351)">
<title>dependencies</title>
<polygon fill="#ffffff" stroke="transparent" points="-4,4 -4,-351 966,-351 966,4 -4,4"/>
<text text-anchor="start" x="460.0091" y="-42.4" font-family="sans-serif" font-weight="bold" font-size="14.00" fill="#000000">Legend</text>
<polygon fill="#ffffb3" stroke="transparent" points="247,-10 247,-30 267,-30 267,-10 247,-10"/>
<text text-anchor="start" x="270.629" y="-15.4" font-family="sans-serif" font-size="14.00" fill="#000000"> &#160;Declarations</text>
<polygon fill="#8dd3c7" stroke="transparent" points="360,-10 360,-30 380,-30 380,-10 360,-10"/>
<text text-anchor="start" x="383.7251" y="-15.4" font-family="sans-serif" font-size="14.00" fill="#000000"> &#160;Module</text>
<polygon fill="#80b1d3" stroke="transparent" points="446,-10 446,-30 466,-30 466,-10 446,-10"/>
<text text-anchor="start" x="469.7812" y="-15.4" font-family="sans-serif" font-size="14.00" fill="#000000"> &#160;Bootstrap</text>
<polygon fill="#fdb462" stroke="transparent" points="543,-10 543,-30 563,-30 563,-10 543,-10"/>
<text text-anchor="start" x="566.6732" y="-15.4" font-family="sans-serif" font-size="14.00" fill="#000000"> &#160;Providers</text>
<polygon fill="#fb8072" stroke="transparent" points="639,-10 639,-30 659,-30 659,-10 639,-10"/>
<text text-anchor="start" x="662.7258" y="-15.4" font-family="sans-serif" font-size="14.00" fill="#000000"> &#160;Exports</text>
<g id="clust1" class="cluster">
<title>cluster_AngularPaginatorModule</title>
<polygon fill="none" stroke="#000000" stroke-dasharray="1,5" points="8,-70 8,-271 806,-271 806,-70 8,-70"/>
</g>
<g id="clust2" class="cluster">
<title>cluster_AngularPaginatorModule_declarations</title>
<polygon fill="none" stroke="#000000" points="258,-78 258,-130 798,-130 798,-78 258,-78"/>
</g>
<g id="clust7" class="cluster">
<title>cluster_AngularPaginatorModule_exports</title>
<polygon fill="none" stroke="#000000" points="246,-211 246,-263 798,-263 798,-211 246,-211"/>
</g>
<g id="clust9" class="cluster">
<title>cluster_AngularPaginatorModule_providers</title>
<polygon fill="none" stroke="#000000" points="16,-78 16,-130 250,-130 250,-78 16,-78"/>
</g>
<g id="clust10" class="cluster">
<title>cluster_AppModule</title>
<polygon fill="none" stroke="#000000" stroke-dasharray="1,5" points="814,-138 814,-339 954,-339 954,-138 814,-138"/>
</g>
<g id="clust11" class="cluster">
<title>cluster_AppModule_declarations</title>
<polygon fill="none" stroke="#000000" points="822,-146 822,-198 944,-198 944,-146 822,-146"/>
</g>
<g id="clust15" class="cluster">
<title>cluster_AppModule_bootstrap</title>
<polygon fill="none" stroke="#000000" points="822,-279 822,-331 946,-331 946,-279 822,-279"/>
</g>
<!-- AngularPaginatorComponent -->
<g id="node1" class="node">
<title>AngularPaginatorComponent</title>
<polygon fill="#ffffb3" stroke="#000000" points="790.3585,-122 609.6415,-122 609.6415,-86 790.3585,-86 790.3585,-122"/>
<text text-anchor="middle" x="700" y="-99.8" font-family="Times,serif" font-size="14.00" fill="#000000">AngularPaginatorComponent</text>
</g>
<!-- AngularPaginatorModule -->
<g id="node4" class="node">
<title>AngularPaginatorModule</title>
<polygon fill="#8dd3c7" stroke="#000000" points="584.5758,-190 581.5758,-194 560.5758,-194 557.5758,-190 425.4242,-190 425.4242,-154 584.5758,-154 584.5758,-190"/>
<text text-anchor="middle" x="505" y="-167.8" font-family="Times,serif" font-size="14.00" fill="#000000">AngularPaginatorModule</text>
</g>
<!-- AngularPaginatorComponent&#45;&gt;AngularPaginatorModule -->
<g id="edge1" class="edge">
<title>AngularPaginatorComponent&#45;&gt;AngularPaginatorModule</title>
<path fill="none" stroke="#000000" d="M669.7736,-122.0225C669.7736,-139.3734 669.7736,-163 669.7736,-163 669.7736,-163 594.9734,-163 594.9734,-163"/>
<polygon fill="#000000" stroke="#000000" points="594.9735,-159.5001 584.9734,-163 594.9734,-166.5001 594.9735,-159.5001"/>
</g>
<!-- AngularPaginatorDirective -->
<g id="node2" class="node">
<title>AngularPaginatorDirective</title>
<polygon fill="#ffffb3" stroke="#000000" points="591.6093,-122 424.3907,-122 424.3907,-86 591.6093,-86 591.6093,-122"/>
<text text-anchor="middle" x="508" y="-99.8" font-family="Times,serif" font-size="14.00" fill="#000000">AngularPaginatorDirective</text>
</g>
<!-- AngularPaginatorDirective&#45;&gt;AngularPaginatorModule -->
<g id="edge2" class="edge">
<title>AngularPaginatorDirective&#45;&gt;AngularPaginatorModule</title>
<path fill="none" stroke="#000000" d="M505,-122.2228C505,-122.2228 505,-143.7269 505,-143.7269"/>
<polygon fill="#000000" stroke="#000000" points="501.5001,-143.7269 505,-153.7269 508.5001,-143.727 501.5001,-143.7269"/>
</g>
<!-- AngularPaginatorPipe -->
<g id="node3" class="node">
<title>AngularPaginatorPipe</title>
<polygon fill="#ffffb3" stroke="#000000" points="406.4144,-122 265.5856,-122 265.5856,-86 406.4144,-86 406.4144,-122"/>
<text text-anchor="middle" x="336" y="-99.8" font-family="Times,serif" font-size="14.00" fill="#000000">AngularPaginatorPipe</text>
</g>
<!-- AngularPaginatorPipe&#45;&gt;AngularPaginatorModule -->
<g id="edge3" class="edge">
<title>AngularPaginatorPipe&#45;&gt;AngularPaginatorModule</title>
<path fill="none" stroke="#000000" d="M402.0819,-122.0225C402.0819,-139.3734 402.0819,-163 402.0819,-163 402.0819,-163 415.4356,-163 415.4356,-163"/>
<polygon fill="#000000" stroke="#000000" points="415.4356,-166.5001 425.4356,-163 415.4356,-159.5001 415.4356,-166.5001"/>
</g>
<!-- AngularPaginatorComponent  -->
<g id="node5" class="node">
<title>AngularPaginatorComponent </title>
<polygon fill="#fb8072" stroke="#000000" points="790.3587,-255 605.6413,-255 605.6413,-219 790.3587,-219 790.3587,-255"/>
<text text-anchor="middle" x="698" y="-232.8" font-family="Times,serif" font-size="14.00" fill="#000000">AngularPaginatorComponent </text>
</g>
<!-- AngularPaginatorModule&#45;&gt;AngularPaginatorComponent  -->
<g id="edge4" class="edge">
<title>AngularPaginatorModule&#45;&gt;AngularPaginatorComponent </title>
<path fill="none" stroke="#000000" stroke-dasharray="5,2" d="M584.6349,-181C649.3536,-181 729.9764,-181 729.9764,-181 729.9764,-181 729.9764,-208.973 729.9764,-208.973"/>
<polygon fill="#000000" stroke="#000000" points="726.4765,-208.973 729.9764,-218.973 733.4765,-208.973 726.4765,-208.973"/>
</g>
<!-- AngularPaginatorDirective  -->
<g id="node6" class="node">
<title>AngularPaginatorDirective </title>
<polygon fill="#fb8072" stroke="#000000" points="587.6088,-255 416.3912,-255 416.3912,-219 587.6088,-219 587.6088,-255"/>
<text text-anchor="middle" x="502" y="-232.8" font-family="Times,serif" font-size="14.00" fill="#000000">AngularPaginatorDirective </text>
</g>
<!-- AngularPaginatorModule&#45;&gt;AngularPaginatorDirective  -->
<g id="edge5" class="edge">
<title>AngularPaginatorModule&#45;&gt;AngularPaginatorDirective </title>
<path fill="none" stroke="#000000" stroke-dasharray="5,2" d="M505,-190.1061C505,-190.1061 505,-208.991 505,-208.991"/>
<polygon fill="#000000" stroke="#000000" points="501.5001,-208.9909 505,-218.991 508.5001,-208.991 501.5001,-208.9909"/>
</g>
<!-- AngularPaginatorPipe  -->
<g id="node7" class="node">
<title>AngularPaginatorPipe </title>
<polygon fill="#fb8072" stroke="#000000" points="397.9138,-255 254.0862,-255 254.0862,-219 397.9138,-219 397.9138,-255"/>
<text text-anchor="middle" x="326" y="-232.8" font-family="Times,serif" font-size="14.00" fill="#000000">AngularPaginatorPipe </text>
</g>
<!-- AngularPaginatorModule&#45;&gt;AngularPaginatorPipe  -->
<g id="edge6" class="edge">
<title>AngularPaginatorModule&#45;&gt;AngularPaginatorPipe </title>
<path fill="none" stroke="#000000" stroke-dasharray="5,2" d="M425.2784,-181C379.8414,-181 331.875,-181 331.875,-181 331.875,-181 331.875,-208.973 331.875,-208.973"/>
<polygon fill="#000000" stroke="#000000" points="328.3751,-208.973 331.875,-218.973 335.3751,-208.973 328.3751,-208.973"/>
</g>
<!-- AppModule -->
<g id="node10" class="node">
<title>AppModule</title>
<polygon fill="#8dd3c7" stroke="#000000" points="924.6571,-255 921.6571,-259 900.6571,-259 897.6571,-255 841.3429,-255 841.3429,-219 924.6571,-219 924.6571,-255"/>
<text text-anchor="middle" x="883" y="-232.8" font-family="Times,serif" font-size="14.00" fill="#000000">AppModule</text>
</g>
<!-- AngularPaginatorModule&#45;&gt;AppModule -->
<g id="edge9" class="edge">
<title>AngularPaginatorModule&#45;&gt;AppModule</title>
<path fill="none" stroke="#000000" d="M584.7315,-172C675.0943,-172 809.9798,-172 809.9798,-172 809.9798,-172 809.9798,-237 809.9798,-237 809.9798,-237 830.947,-237 830.947,-237"/>
<polygon fill="#000000" stroke="#000000" points="830.947,-240.5001 840.947,-237 830.9469,-233.5001 830.947,-240.5001"/>
</g>
<!-- AngularPaginatorService -->
<g id="node8" class="node">
<title>AngularPaginatorService</title>
<ellipse fill="#fdb462" stroke="#000000" cx="133" cy="-104" rx="108.7864" ry="18"/>
<text text-anchor="middle" x="133" y="-99.8" font-family="Times,serif" font-size="14.00" fill="#000000">AngularPaginatorService</text>
</g>
<!-- AngularPaginatorService&#45;&gt;AngularPaginatorModule -->
<g id="edge7" class="edge">
<title>AngularPaginatorService&#45;&gt;AngularPaginatorModule</title>
<path fill="none" stroke="#000000" d="M133,-122.2228C133,-142.3652 133,-172 133,-172 133,-172 415.1967,-172 415.1967,-172"/>
<polygon fill="#000000" stroke="#000000" points="415.1967,-175.5001 425.1967,-172 415.1966,-168.5001 415.1967,-175.5001"/>
</g>
<!-- AppComponent -->
<g id="node9" class="node">
<title>AppComponent</title>
<polygon fill="#ffffb3" stroke="#000000" points="935.9399,-190 830.0601,-190 830.0601,-154 935.9399,-154 935.9399,-190"/>
<text text-anchor="middle" x="883" y="-167.8" font-family="Times,serif" font-size="14.00" fill="#000000">AppComponent</text>
</g>
<!-- AppComponent&#45;&gt;AppModule -->
<g id="edge8" class="edge">
<title>AppComponent&#45;&gt;AppModule</title>
<path fill="none" stroke="#000000" d="M883,-190.1061C883,-190.1061 883,-208.991 883,-208.991"/>
<polygon fill="#000000" stroke="#000000" points="879.5001,-208.9909 883,-218.991 886.5001,-208.991 879.5001,-208.9909"/>
</g>
<!-- AppComponent  -->
<g id="node11" class="node">
<title>AppComponent </title>
<polygon fill="#80b1d3" stroke="#000000" points="938.439,-323 829.561,-323 829.561,-287 938.439,-287 938.439,-323"/>
<text text-anchor="middle" x="884" y="-300.8" font-family="Times,serif" font-size="14.00" fill="#000000">AppComponent </text>
</g>
<!-- AppModule&#45;&gt;AppComponent  -->
<g id="edge10" class="edge">
<title>AppModule&#45;&gt;AppComponent </title>
<path fill="none" stroke="#000000" stroke-dasharray="1,5" d="M883,-255.2228C883,-255.2228 883,-276.7269 883,-276.7269"/>
<polygon fill="#000000" stroke="#000000" points="879.5001,-276.7269 883,-286.7269 886.5001,-276.727 879.5001,-276.7269"/>
</g>
</g>
</svg>
