<?xml version="1.0" encoding="UTF-8" standalone="no"?>
<!DOCTYPE svg PUBLIC "-//W3C//DTD SVG 1.1//EN"
 "http://www.w3.org/Graphics/SVG/1.1/DTD/svg11.dtd">
<!-- Generated by graphviz version 2.40.1 (20161225.0304)
 -->
<!-- Title: dependencies Pages: 1 -->
<svg width="976pt" height="352pt"
 viewBox="0.00 0.00 976.00 352.00" xmlns="http://www.w3.org/2000/svg" xmlns:xlink="http://www.w3.org/1999/xlink">
<g id="graph0" class="graph" transform="scale(1 1) rotate(0) translate(4 348)">
<title>dependencies</title>
<polygon fill="#ffffff" stroke="transparent" points="-4,4 -4,-348 972,-348 972,4 -4,4"/>
<text text-anchor="start" x="463.0091" y="-42.4" font-family="sans-serif" font-weight="bold" font-size="14.00" fill="#000000">Legend</text>
<polygon fill="#ffffb3" stroke="transparent" points="250,-10 250,-30 270,-30 270,-10 250,-10"/>
<text text-anchor="start" x="273.629" y="-15.4" font-family="sans-serif" font-size="14.00" fill="#000000"> &#160;Declarations</text>
<polygon fill="#8dd3c7" stroke="transparent" points="363,-10 363,-30 383,-30 383,-10 363,-10"/>
<text text-anchor="start" x="386.7251" y="-15.4" font-family="sans-serif" font-size="14.00" fill="#000000"> &#160;Module</text>
<polygon fill="#80b1d3" stroke="transparent" points="449,-10 449,-30 469,-30 469,-10 449,-10"/>
<text text-anchor="start" x="472.7812" y="-15.4" font-family="sans-serif" font-size="14.00" fill="#000000"> &#160;Bootstrap</text>
<polygon fill="#fdb462" stroke="transparent" points="546,-10 546,-30 566,-30 566,-10 546,-10"/>
<text text-anchor="start" x="569.6732" y="-15.4" font-family="sans-serif" font-size="14.00" fill="#000000"> &#160;Providers</text>
<polygon fill="#fb8072" stroke="transparent" points="642,-10 642,-30 662,-30 662,-10 642,-10"/>
<text text-anchor="start" x="665.7258" y="-15.4" font-family="sans-serif" font-size="14.00" fill="#000000"> &#160;Exports</text>
<g id="clust1" class="cluster">
<title>cluster_AngularPaginatorModule</title>
<polygon fill="none" stroke="#000000" stroke-dasharray="1,5" points="8,-70 8,-268 806,-268 806,-70 8,-70"/>
</g>
<g id="clust2" class="cluster">
<title>cluster_AngularPaginatorModule_declarations</title>
<polygon fill="none" stroke="#000000" points="258,-78 258,-130 798,-130 798,-78 258,-78"/>
</g>
<g id="clust7" class="cluster">
<title>cluster_AngularPaginatorModule_exports</title>
<polygon fill="none" stroke="#000000" points="246,-208 246,-260 798,-260 798,-208 246,-208"/>
</g>
<g id="clust9" class="cluster">
<title>cluster_AngularPaginatorModule_providers</title>
<polygon fill="none" stroke="#000000" points="16,-78 16,-130 250,-130 250,-78 16,-78"/>
</g>
<g id="clust10" class="cluster">
<title>cluster_AppModule</title>
<polygon fill="none" stroke="#000000" stroke-dasharray="1,5" points="814,-70 814,-336 960,-336 960,-70 814,-70"/>
</g>
<g id="clust11" class="cluster">
<title>cluster_AppModule_declarations</title>
<polygon fill="none" stroke="#000000" points="825,-143 825,-195 947,-195 947,-143 825,-143"/>
</g>
<g id="clust12" class="cluster">
<title>cluster_AppModule_AppComponent_providers</title>
<polygon fill="none" stroke="#000000" points="822,-78 822,-130 952,-130 952,-78 822,-78"/>
</g>
<g id="clust15" class="cluster">
<title>cluster_AppModule_bootstrap</title>
<polygon fill="none" stroke="#000000" points="823,-276 823,-328 947,-328 947,-276 823,-276"/>
</g>
<!-- AngularPaginatorComponent -->
<g id="node1" class="node">
<title>AngularPaginatorComponent</title>
<polygon fill="#ffffb3" stroke="#000000" points="790.3585,-122 609.6415,-122 609.6415,-86 790.3585,-86 790.3585,-122"/>
<text text-anchor="middle" x="700" y="-99.8" font-family="Times,serif" font-size="14.00" fill="#000000">AngularPaginatorComponent</text>
</g>
<!-- AngularPaginatorModule -->
<g id="node4" class="node">
<title>AngularPaginatorModule</title>
<polygon fill="#8dd3c7" stroke="#000000" points="584.5758,-187 581.5758,-191 560.5758,-191 557.5758,-187 425.4242,-187 425.4242,-151 584.5758,-151 584.5758,-187"/>
<text text-anchor="middle" x="505" y="-164.8" font-family="Times,serif" font-size="14.00" fill="#000000">AngularPaginatorModule</text>
</g>
<!-- AngularPaginatorComponent&#45;&gt;AngularPaginatorModule -->
<g id="edge1" class="edge">
<title>AngularPaginatorComponent&#45;&gt;AngularPaginatorModule</title>
<path fill="none" stroke="#000000" d="M669.7736,-122.027C669.7736,-138.3976 669.7736,-160 669.7736,-160 669.7736,-160 594.9734,-160 594.9734,-160"/>
<polygon fill="#000000" stroke="#000000" points="594.9735,-156.5001 584.9734,-160 594.9734,-163.5001 594.9735,-156.5001"/>
</g>
<!-- AngularPaginatorDirective -->
<g id="node2" class="node">
<title>AngularPaginatorDirective</title>
<polygon fill="#ffffb3" stroke="#000000" points="591.6093,-122 424.3907,-122 424.3907,-86 591.6093,-86 591.6093,-122"/>
<text text-anchor="middle" x="508" y="-99.8" font-family="Times,serif" font-size="14.00" fill="#000000">AngularPaginatorDirective</text>
</g>
<!-- AngularPaginatorDirective&#45;&gt;AngularPaginatorModule -->
<g id="edge2" class="edge">
<title>AngularPaginatorDirective&#45;&gt;AngularPaginatorModule</title>
<path fill="none" stroke="#000000" d="M505,-122.1061C505,-122.1061 505,-140.991 505,-140.991"/>
<polygon fill="#000000" stroke="#000000" points="501.5001,-140.9909 505,-150.991 508.5001,-140.991 501.5001,-140.9909"/>
</g>
<!-- AngularPaginatorPipe -->
<g id="node3" class="node">
<title>AngularPaginatorPipe</title>
<polygon fill="#ffffb3" stroke="#000000" points="406.4144,-122 265.5856,-122 265.5856,-86 406.4144,-86 406.4144,-122"/>
<text text-anchor="middle" x="336" y="-99.8" font-family="Times,serif" font-size="14.00" fill="#000000">AngularPaginatorPipe</text>
</g>
<!-- AngularPaginatorPipe&#45;&gt;AngularPaginatorModule -->
<g id="edge3" class="edge">
<title>AngularPaginatorPipe&#45;&gt;AngularPaginatorModule</title>
<path fill="none" stroke="#000000" d="M402.0819,-122.027C402.0819,-138.3976 402.0819,-160 402.0819,-160 402.0819,-160 415.4356,-160 415.4356,-160"/>
<polygon fill="#000000" stroke="#000000" points="415.4356,-163.5001 425.4356,-160 415.4356,-156.5001 415.4356,-163.5001"/>
</g>
<!-- AngularPaginatorComponent  -->
<g id="node5" class="node">
<title>AngularPaginatorComponent </title>
<polygon fill="#fb8072" stroke="#000000" points="790.3587,-252 605.6413,-252 605.6413,-216 790.3587,-216 790.3587,-252"/>
<text text-anchor="middle" x="698" y="-229.8" font-family="Times,serif" font-size="14.00" fill="#000000">AngularPaginatorComponent </text>
</g>
<!-- AngularPaginatorModule&#45;&gt;AngularPaginatorComponent  -->
<g id="edge4" class="edge">
<title>AngularPaginatorModule&#45;&gt;AngularPaginatorComponent </title>
<path fill="none" stroke="#000000" stroke-dasharray="5,2" d="M584.6349,-178C649.3536,-178 729.9764,-178 729.9764,-178 729.9764,-178 729.9764,-205.973 729.9764,-205.973"/>
<polygon fill="#000000" stroke="#000000" points="726.4765,-205.973 729.9764,-215.973 733.4765,-205.973 726.4765,-205.973"/>
</g>
<!-- AngularPaginatorDirective  -->
<g id="node6" class="node">
<title>AngularPaginatorDirective </title>
<polygon fill="#fb8072" stroke="#000000" points="587.6088,-252 416.3912,-252 416.3912,-216 587.6088,-216 587.6088,-252"/>
<text text-anchor="middle" x="502" y="-229.8" font-family="Times,serif" font-size="14.00" fill="#000000">AngularPaginatorDirective </text>
</g>
<!-- AngularPaginatorModule&#45;&gt;AngularPaginatorDirective  -->
<g id="edge5" class="edge">
<title>AngularPaginatorModule&#45;&gt;AngularPaginatorDirective </title>
<path fill="none" stroke="#000000" stroke-dasharray="5,2" d="M505,-187.1061C505,-187.1061 505,-205.991 505,-205.991"/>
<polygon fill="#000000" stroke="#000000" points="501.5001,-205.9909 505,-215.991 508.5001,-205.991 501.5001,-205.9909"/>
</g>
<!-- AngularPaginatorPipe  -->
<g id="node7" class="node">
<title>AngularPaginatorPipe </title>
<polygon fill="#fb8072" stroke="#000000" points="397.9138,-252 254.0862,-252 254.0862,-216 397.9138,-216 397.9138,-252"/>
<text text-anchor="middle" x="326" y="-229.8" font-family="Times,serif" font-size="14.00" fill="#000000">AngularPaginatorPipe </text>
</g>
<!-- AngularPaginatorModule&#45;&gt;AngularPaginatorPipe  -->
<g id="edge6" class="edge">
<title>AngularPaginatorModule&#45;&gt;AngularPaginatorPipe </title>
<path fill="none" stroke="#000000" stroke-dasharray="5,2" d="M425.2784,-178C379.8414,-178 331.875,-178 331.875,-178 331.875,-178 331.875,-205.973 331.875,-205.973"/>
<polygon fill="#000000" stroke="#000000" points="328.3751,-205.973 331.875,-215.973 335.3751,-205.973 328.3751,-205.973"/>
</g>
<!-- AppModule -->
<g id="node10" class="node">
<title>AppModule</title>
<polygon fill="#8dd3c7" stroke="#000000" points="926.6571,-252 923.6571,-256 902.6571,-256 899.6571,-252 843.3429,-252 843.3429,-216 926.6571,-216 926.6571,-252"/>
<text text-anchor="middle" x="885" y="-229.8" font-family="Times,serif" font-size="14.00" fill="#000000">AppModule</text>
</g>
<!-- AngularPaginatorModule&#45;&gt;AppModule -->
<g id="edge10" class="edge">
<title>AngularPaginatorModule&#45;&gt;AppModule</title>
<path fill="none" stroke="#000000" d="M584.8425,-169C675.3311,-169 810.4045,-169 810.4045,-169 810.4045,-169 810.4045,-234 810.4045,-234 810.4045,-234 833.3403,-234 833.3403,-234"/>
<polygon fill="#000000" stroke="#000000" points="833.3404,-237.5001 843.3403,-234 833.3403,-230.5001 833.3404,-237.5001"/>
</g>
<!-- AngularPaginatorService -->
<g id="node8" class="node">
<title>AngularPaginatorService</title>
<ellipse fill="#fdb462" stroke="#000000" cx="133" cy="-104" rx="108.7864" ry="18"/>
<text text-anchor="middle" x="133" y="-99.8" font-family="Times,serif" font-size="14.00" fill="#000000">AngularPaginatorService</text>
</g>
<!-- AngularPaginatorService&#45;&gt;AngularPaginatorModule -->
<g id="edge7" class="edge">
<title>AngularPaginatorService&#45;&gt;AngularPaginatorModule</title>
<path fill="none" stroke="#000000" d="M133,-122.1061C133,-141.3391 133,-169 133,-169 133,-169 415.1967,-169 415.1967,-169"/>
<polygon fill="#000000" stroke="#000000" points="415.1967,-172.5001 425.1967,-169 415.1966,-165.5001 415.1967,-172.5001"/>
</g>
<!-- AppComponent -->
<g id="node9" class="node">
<title>AppComponent</title>
<polygon fill="#ffffb3" stroke="#000000" points="938.9399,-187 833.0601,-187 833.0601,-151 938.9399,-151 938.9399,-187"/>
<text text-anchor="middle" x="886" y="-164.8" font-family="Times,serif" font-size="14.00" fill="#000000">AppComponent</text>
</g>
<!-- AppComponent&#45;&gt;AppModule -->
<g id="edge8" class="edge">
<title>AppComponent&#45;&gt;AppModule</title>
<path fill="none" stroke="#000000" d="M885,-187.1061C885,-187.1061 885,-205.991 885,-205.991"/>
<polygon fill="#000000" stroke="#000000" points="881.5001,-205.9909 885,-215.991 888.5001,-205.991 881.5001,-205.9909"/>
</g>
<!-- AppComponent  -->
<g id="node12" class="node">
<title>AppComponent </title>
<polygon fill="#80b1d3" stroke="#000000" points="939.439,-320 830.561,-320 830.561,-284 939.439,-284 939.439,-320"/>
<text text-anchor="middle" x="885" y="-297.8" font-family="Times,serif" font-size="14.00" fill="#000000">AppComponent </text>
</g>
<!-- AppModule&#45;&gt;AppComponent  -->
<g id="edge11" class="edge">
<title>AppModule&#45;&gt;AppComponent </title>
<path fill="none" stroke="#000000" stroke-dasharray="1,5" d="M885,-252.2228C885,-252.2228 885,-273.7269 885,-273.7269"/>
<polygon fill="#000000" stroke="#000000" points="881.5001,-273.7269 885,-283.7269 888.5001,-273.727 881.5001,-273.7269"/>
</g>
<!-- AppService -->
<g id="node11" class="node">
<title>AppService</title>
<ellipse fill="#fdb462" stroke="#000000" cx="887" cy="-104" rx="56.7406" ry="18"/>
<text text-anchor="middle" x="887" y="-99.8" font-family="Times,serif" font-size="14.00" fill="#000000">AppService</text>
</g>
<!-- AppService&#45;&gt;AppComponent -->
<g id="edge9" class="edge">
<title>AppService&#45;&gt;AppComponent</title>
<path fill="none" stroke="#000000" d="M886,-122.1061C886,-122.1061 886,-140.991 886,-140.991"/>
<polygon fill="#000000" stroke="#000000" points="882.5001,-140.9909 886,-150.991 889.5001,-140.991 882.5001,-140.9909"/>
</g>
</g>
</svg>
