<?xml version="1.0" encoding="UTF-8" standalone="no"?>
<!DOCTYPE svg PUBLIC "-//W3C//DTD SVG 1.1//EN"
 "http://www.w3.org/Graphics/SVG/1.1/DTD/svg11.dtd">
<!-- Generated by graphviz version 2.40.1 (20161225.0304)
 -->
<!-- Title: dependencies Pages: 1 -->
<svg width="977pt" height="352pt"
 viewBox="0.00 0.00 977.00 352.00" xmlns="http://www.w3.org/2000/svg" xmlns:xlink="http://www.w3.org/1999/xlink">
<g id="graph0" class="graph" transform="scale(1 1) rotate(0) translate(4 348)">
<title>dependencies</title>
<polygon fill="#ffffff" stroke="transparent" points="-4,4 -4,-348 973,-348 973,4 -4,4"/>
<text text-anchor="start" x="463.5091" y="-42.4" font-family="sans-serif" font-weight="bold" font-size="14.00" fill="#000000">Legend</text>
<polygon fill="#ffffb3" stroke="transparent" points="250.5,-10 250.5,-30 270.5,-30 270.5,-10 250.5,-10"/>
<text text-anchor="start" x="274.129" y="-15.4" font-family="sans-serif" font-size="14.00" fill="#000000"> &#160;Declarations</text>
<polygon fill="#8dd3c7" stroke="transparent" points="363.5,-10 363.5,-30 383.5,-30 383.5,-10 363.5,-10"/>
<text text-anchor="start" x="387.2251" y="-15.4" font-family="sans-serif" font-size="14.00" fill="#000000"> &#160;Module</text>
<polygon fill="#80b1d3" stroke="transparent" points="449.5,-10 449.5,-30 469.5,-30 469.5,-10 449.5,-10"/>
<text text-anchor="start" x="473.2812" y="-15.4" font-family="sans-serif" font-size="14.00" fill="#000000"> &#160;Bootstrap</text>
<polygon fill="#fdb462" stroke="transparent" points="546.5,-10 546.5,-30 566.5,-30 566.5,-10 546.5,-10"/>
<text text-anchor="start" x="570.1732" y="-15.4" font-family="sans-serif" font-size="14.00" fill="#000000"> &#160;Providers</text>
<polygon fill="#fb8072" stroke="transparent" points="642.5,-10 642.5,-30 662.5,-30 662.5,-10 642.5,-10"/>
<text text-anchor="start" x="666.2258" y="-15.4" font-family="sans-serif" font-size="14.00" fill="#000000"> &#160;Exports</text>
<g id="clust1" class="cluster">
<title>cluster_AngularPaginatorModule</title>
<polygon fill="none" stroke="#000000" stroke-dasharray="1,5" points="8,-70 8,-268 807,-268 807,-70 8,-70"/>
</g>
<g id="clust2" class="cluster">
<title>cluster_AngularPaginatorModule_declarations</title>
<polygon fill="none" stroke="#000000" points="258,-78 258,-130 799,-130 799,-78 258,-78"/>
</g>
<g id="clust7" class="cluster">
<title>cluster_AngularPaginatorModule_exports</title>
<polygon fill="none" stroke="#000000" points="247,-208 247,-260 799,-260 799,-208 247,-208"/>
</g>
<g id="clust9" class="cluster">
<title>cluster_AngularPaginatorModule_providers</title>
<polygon fill="none" stroke="#000000" points="16,-78 16,-130 250,-130 250,-78 16,-78"/>
</g>
<g id="clust10" class="cluster">
<title>cluster_AppModule</title>
<polygon fill="none" stroke="#000000" stroke-dasharray="1,5" points="815,-70 815,-336 961,-336 961,-70 815,-70"/>
</g>
<g id="clust11" class="cluster">
<title>cluster_AppModule_declarations</title>
<polygon fill="none" stroke="#000000" points="826,-143 826,-195 948,-195 948,-143 826,-143"/>
</g>
<g id="clust12" class="cluster">
<title>cluster_AppModule_AppComponent_providers</title>
<polygon fill="none" stroke="#000000" points="823,-78 823,-130 953,-130 953,-78 823,-78"/>
</g>
<g id="clust15" class="cluster">
<title>cluster_AppModule_bootstrap</title>
<polygon fill="none" stroke="#000000" points="824,-276 824,-328 948,-328 948,-276 824,-276"/>
</g>
<!-- AngularPaginatorComponent -->
<g id="node1" class="node">
<title>AngularPaginatorComponent</title>
<polygon fill="#ffffb3" stroke="#000000" points="791.3585,-122 610.6415,-122 610.6415,-86 791.3585,-86 791.3585,-122"/>
<text text-anchor="middle" x="701" y="-99.8" font-family="Times,serif" font-size="14.00" fill="#000000">AngularPaginatorComponent</text>
</g>
<!-- AngularPaginatorModule -->
<g id="node4" class="node">
<title>AngularPaginatorModule</title>
<polygon fill="#8dd3c7" stroke="#000000" points="598.5758,-187 595.5758,-191 574.5758,-191 571.5758,-187 439.4242,-187 439.4242,-151 598.5758,-151 598.5758,-187"/>
<text text-anchor="middle" x="519" y="-164.8" font-family="Times,serif" font-size="14.00" fill="#000000">AngularPaginatorModule</text>
</g>
<!-- AngularPaginatorComponent&#45;&gt;AngularPaginatorModule -->
<g id="edge1" class="edge">
<title>AngularPaginatorComponent&#45;&gt;AngularPaginatorModule</title>
<path fill="none" stroke="#000000" d="M700.875,-122.0225C700.875,-139.3734 700.875,-163 700.875,-163 700.875,-163 608.773,-163 608.773,-163"/>
<polygon fill="#000000" stroke="#000000" points="608.7731,-159.5001 598.773,-163 608.773,-166.5001 608.7731,-159.5001"/>
</g>
<!-- AngularPaginatorPipe -->
<g id="node2" class="node">
<title>AngularPaginatorPipe</title>
<polygon fill="#ffffb3" stroke="#000000" points="592.4144,-122 451.5856,-122 451.5856,-86 592.4144,-86 592.4144,-122"/>
<text text-anchor="middle" x="522" y="-99.8" font-family="Times,serif" font-size="14.00" fill="#000000">AngularPaginatorPipe</text>
</g>
<!-- AngularPaginatorPipe&#45;&gt;AngularPaginatorModule -->
<g id="edge2" class="edge">
<title>AngularPaginatorPipe&#45;&gt;AngularPaginatorModule</title>
<path fill="none" stroke="#000000" d="M522,-122.1061C522,-122.1061 522,-140.991 522,-140.991"/>
<polygon fill="#000000" stroke="#000000" points="518.5001,-140.9909 522,-150.991 525.5001,-140.991 518.5001,-140.9909"/>
</g>
<!-- AngularPaginatorDirective -->
<g id="node3" class="node">
<title>AngularPaginatorDirective</title>
<polygon fill="#ffffb3" stroke="#000000" points="433.6093,-122 266.3907,-122 266.3907,-86 433.6093,-86 433.6093,-122"/>
<text text-anchor="middle" x="350" y="-99.8" font-family="Times,serif" font-size="14.00" fill="#000000">AngularPaginatorDirective</text>
</g>
<!-- AngularPaginatorDirective&#45;&gt;AngularPaginatorModule -->
<g id="edge3" class="edge">
<title>AngularPaginatorDirective&#45;&gt;AngularPaginatorModule</title>
<path fill="none" stroke="#000000" d="M430.1794,-122.027C430.1794,-138.3976 430.1794,-160 430.1794,-160 430.1794,-160 431.0965,-160 431.0965,-160"/>
<polygon fill="#000000" stroke="#000000" points="429.3503,-163.5001 439.3502,-160 429.3502,-156.5001 429.3503,-163.5001"/>
</g>
<!-- AngularPaginatorComponent  -->
<g id="node5" class="node">
<title>AngularPaginatorComponent </title>
<polygon fill="#fb8072" stroke="#000000" points="791.3587,-252 606.6413,-252 606.6413,-216 791.3587,-216 791.3587,-252"/>
<text text-anchor="middle" x="699" y="-229.8" font-family="Times,serif" font-size="14.00" fill="#000000">AngularPaginatorComponent </text>
</g>
<!-- AngularPaginatorModule&#45;&gt;AngularPaginatorComponent  -->
<g id="edge4" class="edge">
<title>AngularPaginatorModule&#45;&gt;AngularPaginatorComponent </title>
<path fill="none" stroke="#000000" stroke-dasharray="5,2" d="M593.7474,-187.1061C593.7474,-206.3391 593.7474,-234 593.7474,-234 593.7474,-234 596.6534,-234 596.6534,-234"/>
<polygon fill="#000000" stroke="#000000" points="596.6535,-237.5001 606.6534,-234 596.6534,-230.5001 596.6535,-237.5001"/>
</g>
<!-- AngularPaginatorPipe  -->
<g id="node6" class="node">
<title>AngularPaginatorPipe </title>
<polygon fill="#fb8072" stroke="#000000" points="588.9138,-252 445.0862,-252 445.0862,-216 588.9138,-216 588.9138,-252"/>
<text text-anchor="middle" x="517" y="-229.8" font-family="Times,serif" font-size="14.00" fill="#000000">AngularPaginatorPipe </text>
</g>
<!-- AngularPaginatorModule&#45;&gt;AngularPaginatorPipe  -->
<g id="edge5" class="edge">
<title>AngularPaginatorModule&#45;&gt;AngularPaginatorPipe </title>
<path fill="none" stroke="#000000" stroke-dasharray="5,2" d="M517,-187.1061C517,-187.1061 517,-205.991 517,-205.991"/>
<polygon fill="#000000" stroke="#000000" points="513.5001,-205.9909 517,-215.991 520.5001,-205.991 513.5001,-205.9909"/>
</g>
<!-- AngularPaginatorDirective  -->
<g id="node7" class="node">
<title>AngularPaginatorDirective </title>
<polygon fill="#fb8072" stroke="#000000" points="426.6088,-252 255.3912,-252 255.3912,-216 426.6088,-216 426.6088,-252"/>
<text text-anchor="middle" x="341" y="-229.8" font-family="Times,serif" font-size="14.00" fill="#000000">AngularPaginatorDirective </text>
</g>
<!-- AngularPaginatorModule&#45;&gt;AngularPaginatorDirective  -->
<g id="edge6" class="edge">
<title>AngularPaginatorModule&#45;&gt;AngularPaginatorDirective </title>
<path fill="none" stroke="#000000" stroke-dasharray="5,2" d="M439.2564,-178C394.0256,-178 346.375,-178 346.375,-178 346.375,-178 346.375,-205.973 346.375,-205.973"/>
<polygon fill="#000000" stroke="#000000" points="342.8751,-205.973 346.375,-215.973 349.8751,-205.973 342.8751,-205.973"/>
</g>
<!-- AppModule -->
<g id="node10" class="node">
<title>AppModule</title>
<polygon fill="#8dd3c7" stroke="#000000" points="927.6571,-252 924.6571,-256 903.6571,-256 900.6571,-252 844.3429,-252 844.3429,-216 927.6571,-216 927.6571,-252"/>
<text text-anchor="middle" x="886" y="-229.8" font-family="Times,serif" font-size="14.00" fill="#000000">AppModule</text>
</g>
<!-- AngularPaginatorModule&#45;&gt;AppModule -->
<g id="edge10" class="edge">
<title>AngularPaginatorModule&#45;&gt;AppModule</title>
<path fill="none" stroke="#000000" d="M598.9008,-175C685.4764,-175 811.4045,-175 811.4045,-175 811.4045,-175 811.4045,-234 811.4045,-234 811.4045,-234 834.3403,-234 834.3403,-234"/>
<polygon fill="#000000" stroke="#000000" points="834.3404,-237.5001 844.3403,-234 834.3403,-230.5001 834.3404,-237.5001"/>
</g>
<!-- AngularPaginatorService -->
<g id="node8" class="node">
<title>AngularPaginatorService</title>
<ellipse fill="#fdb462" stroke="#000000" cx="133" cy="-104" rx="108.7864" ry="18"/>
<text text-anchor="middle" x="133" y="-99.8" font-family="Times,serif" font-size="14.00" fill="#000000">AngularPaginatorService</text>
</g>
<!-- AngularPaginatorService&#45;&gt;AngularPaginatorModule -->
<g id="edge7" class="edge">
<title>AngularPaginatorService&#45;&gt;AngularPaginatorModule</title>
<path fill="none" stroke="#000000" d="M133,-122.1061C133,-141.3391 133,-169 133,-169 133,-169 429.0206,-169 429.0206,-169"/>
<polygon fill="#000000" stroke="#000000" points="429.0206,-172.5001 439.0206,-169 429.0205,-165.5001 429.0206,-172.5001"/>
</g>
<!-- AppComponent -->
<g id="node9" class="node">
<title>AppComponent</title>
<polygon fill="#ffffb3" stroke="#000000" points="939.9399,-187 834.0601,-187 834.0601,-151 939.9399,-151 939.9399,-187"/>
<text text-anchor="middle" x="887" y="-164.8" font-family="Times,serif" font-size="14.00" fill="#000000">AppComponent</text>
</g>
<!-- AppComponent&#45;&gt;AppModule -->
<g id="edge8" class="edge">
<title>AppComponent&#45;&gt;AppModule</title>
<path fill="none" stroke="#000000" d="M886,-187.1061C886,-187.1061 886,-205.991 886,-205.991"/>
<polygon fill="#000000" stroke="#000000" points="882.5001,-205.9909 886,-215.991 889.5001,-205.991 882.5001,-205.9909"/>
</g>
<!-- AppComponent  -->
<g id="node12" class="node">
<title>AppComponent </title>
<polygon fill="#80b1d3" stroke="#000000" points="940.439,-320 831.561,-320 831.561,-284 940.439,-284 940.439,-320"/>
<text text-anchor="middle" x="886" y="-297.8" font-family="Times,serif" font-size="14.00" fill="#000000">AppComponent </text>
</g>
<!-- AppModule&#45;&gt;AppComponent  -->
<g id="edge11" class="edge">
<title>AppModule&#45;&gt;AppComponent </title>
<path fill="none" stroke="#000000" stroke-dasharray="1,5" d="M886,-252.2228C886,-252.2228 886,-273.7269 886,-273.7269"/>
<polygon fill="#000000" stroke="#000000" points="882.5001,-273.7269 886,-283.7269 889.5001,-273.727 882.5001,-273.7269"/>
</g>
<!-- AppService -->
<g id="node11" class="node">
<title>AppService</title>
<ellipse fill="#fdb462" stroke="#000000" cx="888" cy="-104" rx="56.7406" ry="18"/>
<text text-anchor="middle" x="888" y="-99.8" font-family="Times,serif" font-size="14.00" fill="#000000">AppService</text>
</g>
<!-- AppService&#45;&gt;AppComponent -->
<g id="edge9" class="edge">
<title>AppService&#45;&gt;AppComponent</title>
<path fill="none" stroke="#000000" d="M887,-122.1061C887,-122.1061 887,-140.991 887,-140.991"/>
<polygon fill="#000000" stroke="#000000" points="883.5001,-140.9909 887,-150.991 890.5001,-140.991 883.5001,-140.9909"/>
</g>
</g>
</svg>
