<?xml version="1.0" encoding="UTF-8" standalone="no"?>
<!DOCTYPE svg PUBLIC "-//W3C//DTD SVG 1.1//EN"
 "http://www.w3.org/Graphics/SVG/1.1/DTD/svg11.dtd">
<!-- Generated by graphviz version 2.40.1 (20161225.0304)
 -->
<!-- Title: dependencies Pages: 1 -->
<svg width="823pt" height="284pt"
 viewBox="0.00 0.00 823.00 284.00" xmlns="http://www.w3.org/2000/svg" xmlns:xlink="http://www.w3.org/1999/xlink">
<g id="graph0" class="graph" transform="scale(1 1) rotate(0) translate(4 280)">
<title>dependencies</title>
<polygon fill="#ffffff" stroke="transparent" points="-4,4 -4,-280 819,-280 819,4 -4,4"/>
<text text-anchor="start" x="386.5091" y="-42.4" font-family="sans-serif" font-weight="bold" font-size="14.00" fill="#000000">Legend</text>
<polygon fill="#ffffb3" stroke="transparent" points="173.5,-10 173.5,-30 193.5,-30 193.5,-10 173.5,-10"/>
<text text-anchor="start" x="197.129" y="-15.4" font-family="sans-serif" font-size="14.00" fill="#000000"> &#160;Declarations</text>
<polygon fill="#8dd3c7" stroke="transparent" points="286.5,-10 286.5,-30 306.5,-30 306.5,-10 286.5,-10"/>
<text text-anchor="start" x="310.2251" y="-15.4" font-family="sans-serif" font-size="14.00" fill="#000000"> &#160;Module</text>
<polygon fill="#80b1d3" stroke="transparent" points="372.5,-10 372.5,-30 392.5,-30 392.5,-10 372.5,-10"/>
<text text-anchor="start" x="396.2812" y="-15.4" font-family="sans-serif" font-size="14.00" fill="#000000"> &#160;Bootstrap</text>
<polygon fill="#fdb462" stroke="transparent" points="469.5,-10 469.5,-30 489.5,-30 489.5,-10 469.5,-10"/>
<text text-anchor="start" x="493.1732" y="-15.4" font-family="sans-serif" font-size="14.00" fill="#000000"> &#160;Providers</text>
<polygon fill="#fb8072" stroke="transparent" points="565.5,-10 565.5,-30 585.5,-30 585.5,-10 565.5,-10"/>
<text text-anchor="start" x="589.2258" y="-15.4" font-family="sans-serif" font-size="14.00" fill="#000000"> &#160;Exports</text>
<g id="clust1" class="cluster">
<title>cluster_AngularPaginatorModule</title>
<polygon fill="none" stroke="#000000" stroke-dasharray="1,5" points="8,-70 8,-268 807,-268 807,-70 8,-70"/>
</g>
<g id="clust2" class="cluster">
<title>cluster_AngularPaginatorModule_declarations</title>
<polygon fill="none" stroke="#000000" points="258,-78 258,-130 799,-130 799,-78 258,-78"/>
</g>
<g id="clust7" class="cluster">
<title>cluster_AngularPaginatorModule_exports</title>
<polygon fill="none" stroke="#000000" points="163,-208 163,-260 715,-260 715,-208 163,-208"/>
</g>
<g id="clust9" class="cluster">
<title>cluster_AngularPaginatorModule_providers</title>
<polygon fill="none" stroke="#000000" points="16,-78 16,-130 250,-130 250,-78 16,-78"/>
</g>
<!-- AngularPaginatorComponent -->
<g id="node1" class="node">
<title>AngularPaginatorComponent</title>
<polygon fill="#ffffb3" stroke="#000000" points="791.3585,-122 610.6415,-122 610.6415,-86 791.3585,-86 791.3585,-122"/>
<text text-anchor="middle" x="701" y="-99.8" font-family="Times,serif" font-size="14.00" fill="#000000">AngularPaginatorComponent</text>
</g>
<!-- AngularPaginatorModule -->
<g id="node4" class="node">
<title>AngularPaginatorModule</title>
<polygon fill="#8dd3c7" stroke="#000000" points="512.5758,-187 509.5758,-191 488.5758,-191 485.5758,-187 353.4242,-187 353.4242,-151 512.5758,-151 512.5758,-187"/>
<text text-anchor="middle" x="433" y="-164.8" font-family="Times,serif" font-size="14.00" fill="#000000">AngularPaginatorModule</text>
</g>
<!-- AngularPaginatorComponent&#45;&gt;AngularPaginatorModule -->
<g id="edge1" class="edge">
<title>AngularPaginatorComponent&#45;&gt;AngularPaginatorModule</title>
<path fill="none" stroke="#000000" d="M658.875,-122.1061C658.875,-141.3391 658.875,-169 658.875,-169 658.875,-169 522.6351,-169 522.6351,-169"/>
<polygon fill="#000000" stroke="#000000" points="522.6351,-165.5001 512.6351,-169 522.635,-172.5001 522.6351,-165.5001"/>
</g>
<!-- AngularPaginatorPipe -->
<g id="node2" class="node">
<title>AngularPaginatorPipe</title>
<polygon fill="#ffffb3" stroke="#000000" points="592.4144,-122 451.5856,-122 451.5856,-86 592.4144,-86 592.4144,-122"/>
<text text-anchor="middle" x="522" y="-99.8" font-family="Times,serif" font-size="14.00" fill="#000000">AngularPaginatorPipe</text>
</g>
<!-- AngularPaginatorPipe&#45;&gt;AngularPaginatorModule -->
<g id="edge2" class="edge">
<title>AngularPaginatorPipe&#45;&gt;AngularPaginatorModule</title>
<path fill="none" stroke="#000000" d="M482.1655,-122.1061C482.1655,-122.1061 482.1655,-140.991 482.1655,-140.991"/>
<polygon fill="#000000" stroke="#000000" points="478.6656,-140.9909 482.1655,-150.991 485.6656,-140.991 478.6656,-140.9909"/>
</g>
<!-- AngularPaginatorDirective -->
<g id="node3" class="node">
<title>AngularPaginatorDirective</title>
<polygon fill="#ffffb3" stroke="#000000" points="433.6093,-122 266.3907,-122 266.3907,-86 433.6093,-86 433.6093,-122"/>
<text text-anchor="middle" x="350" y="-99.8" font-family="Times,serif" font-size="14.00" fill="#000000">AngularPaginatorDirective</text>
</g>
<!-- AngularPaginatorDirective&#45;&gt;AngularPaginatorModule -->
<g id="edge3" class="edge">
<title>AngularPaginatorDirective&#45;&gt;AngularPaginatorModule</title>
<path fill="none" stroke="#000000" d="M393.6332,-122.1061C393.6332,-122.1061 393.6332,-140.991 393.6332,-140.991"/>
<polygon fill="#000000" stroke="#000000" points="390.1333,-140.9909 393.6332,-150.991 397.1333,-140.991 390.1333,-140.9909"/>
</g>
<!-- AngularPaginatorComponent  -->
<g id="node5" class="node">
<title>AngularPaginatorComponent </title>
<polygon fill="#fb8072" stroke="#000000" points="707.3587,-252 522.6413,-252 522.6413,-216 707.3587,-216 707.3587,-252"/>
<text text-anchor="middle" x="615" y="-229.8" font-family="Times,serif" font-size="14.00" fill="#000000">AngularPaginatorComponent </text>
</g>
<!-- AngularPaginatorModule&#45;&gt;AngularPaginatorComponent  -->
<g id="edge4" class="edge">
<title>AngularPaginatorModule&#45;&gt;AngularPaginatorComponent </title>
<path fill="none" stroke="#000000" stroke-dasharray="5,2" d="M508.7474,-187.1061C508.7474,-206.3391 508.7474,-234 508.7474,-234 508.7474,-234 512.6381,-234 512.6381,-234"/>
<polygon fill="#000000" stroke="#000000" points="512.6381,-237.5001 522.6381,-234 512.638,-230.5001 512.6381,-237.5001"/>
</g>
<!-- AngularPaginatorPipe  -->
<g id="node6" class="node">
<title>AngularPaginatorPipe </title>
<polygon fill="#fb8072" stroke="#000000" points="504.9138,-252 361.0862,-252 361.0862,-216 504.9138,-216 504.9138,-252"/>
<text text-anchor="middle" x="433" y="-229.8" font-family="Times,serif" font-size="14.00" fill="#000000">AngularPaginatorPipe </text>
</g>
<!-- AngularPaginatorModule&#45;&gt;AngularPaginatorPipe  -->
<g id="edge5" class="edge">
<title>AngularPaginatorModule&#45;&gt;AngularPaginatorPipe </title>
<path fill="none" stroke="#000000" stroke-dasharray="5,2" d="M433,-187.1061C433,-187.1061 433,-205.991 433,-205.991"/>
<polygon fill="#000000" stroke="#000000" points="429.5001,-205.9909 433,-215.991 436.5001,-205.991 429.5001,-205.9909"/>
</g>
<!-- AngularPaginatorDirective  -->
<g id="node7" class="node">
<title>AngularPaginatorDirective </title>
<polygon fill="#fb8072" stroke="#000000" points="342.6088,-252 171.3912,-252 171.3912,-216 342.6088,-216 342.6088,-252"/>
<text text-anchor="middle" x="257" y="-229.8" font-family="Times,serif" font-size="14.00" fill="#000000">AngularPaginatorDirective </text>
</g>
<!-- AngularPaginatorModule&#45;&gt;AngularPaginatorDirective  -->
<g id="edge6" class="edge">
<title>AngularPaginatorModule&#45;&gt;AngularPaginatorDirective </title>
<path fill="none" stroke="#000000" stroke-dasharray="5,2" d="M357.2526,-187.1061C357.2526,-206.3391 357.2526,-234 357.2526,-234 357.2526,-234 352.8888,-234 352.8888,-234"/>
<polygon fill="#000000" stroke="#000000" points="352.8889,-230.5001 342.8888,-234 352.8888,-237.5001 352.8889,-230.5001"/>
</g>
<!-- AngularPaginatorService -->
<g id="node8" class="node">
<title>AngularPaginatorService</title>
<ellipse fill="#fdb462" stroke="#000000" cx="133" cy="-104" rx="108.7864" ry="18"/>
<text text-anchor="middle" x="133" y="-99.8" font-family="Times,serif" font-size="14.00" fill="#000000">AngularPaginatorService</text>
</g>
<!-- AngularPaginatorService&#45;&gt;AngularPaginatorModule -->
<g id="edge7" class="edge">
<title>AngularPaginatorService&#45;&gt;AngularPaginatorModule</title>
<path fill="none" stroke="#000000" d="M206.5444,-117.468C206.5444,-136.5069 206.5444,-169 206.5444,-169 206.5444,-169 343.1602,-169 343.1602,-169"/>
<polygon fill="#000000" stroke="#000000" points="343.1602,-172.5001 353.1602,-169 343.1602,-165.5001 343.1602,-172.5001"/>
</g>
</g>
</svg>
