<?xml version="1.0" encoding="UTF-8" standalone="no"?>
<!DOCTYPE svg PUBLIC "-//W3C//DTD SVG 1.1//EN"
 "http://www.w3.org/Graphics/SVG/1.1/DTD/svg11.dtd">
<!-- Generated by graphviz version 2.40.1 (20161225.0304)
 -->
<!-- Title: dependencies Pages: 1 -->
<svg width="504pt" height="349pt"
 viewBox="0.00 0.00 504.00 349.00" xmlns="http://www.w3.org/2000/svg" xmlns:xlink="http://www.w3.org/1999/xlink">
<g id="graph0" class="graph" transform="scale(1 1) rotate(0) translate(4 345)">
<title>dependencies</title>
<polygon fill="#ffffff" stroke="transparent" points="-4,4 -4,-345 500,-345 500,4 -4,4"/>
<text text-anchor="start" x="227.0091" y="-42.4" font-family="sans-serif" font-weight="bold" font-size="14.00" fill="#000000">Legend</text>
<polygon fill="#ffffb3" stroke="transparent" points="14,-10 14,-30 34,-30 34,-10 14,-10"/>
<text text-anchor="start" x="37.629" y="-15.4" font-family="sans-serif" font-size="14.00" fill="#000000"> &#160;Declarations</text>
<polygon fill="#8dd3c7" stroke="transparent" points="127,-10 127,-30 147,-30 147,-10 127,-10"/>
<text text-anchor="start" x="150.7251" y="-15.4" font-family="sans-serif" font-size="14.00" fill="#000000"> &#160;Module</text>
<polygon fill="#80b1d3" stroke="transparent" points="213,-10 213,-30 233,-30 233,-10 213,-10"/>
<text text-anchor="start" x="236.7812" y="-15.4" font-family="sans-serif" font-size="14.00" fill="#000000"> &#160;Bootstrap</text>
<polygon fill="#fdb462" stroke="transparent" points="310,-10 310,-30 330,-30 330,-10 310,-10"/>
<text text-anchor="start" x="333.6732" y="-15.4" font-family="sans-serif" font-size="14.00" fill="#000000"> &#160;Providers</text>
<polygon fill="#fb8072" stroke="transparent" points="406,-10 406,-30 426,-30 426,-10 406,-10"/>
<text text-anchor="start" x="429.7258" y="-15.4" font-family="sans-serif" font-size="14.00" fill="#000000"> &#160;Exports</text>
<g id="clust1" class="cluster">
<title>cluster_AppModule</title>
<polygon fill="none" stroke="#000000" stroke-dasharray="1,5" points="87,-70 87,-333 409,-333 409,-70 87,-70"/>
</g>
<g id="clust2" class="cluster">
<title>cluster_AppModule_declarations</title>
<polygon fill="none" stroke="#000000" points="279,-143 279,-195 401,-195 401,-143 279,-143"/>
</g>
<g id="clust3" class="cluster">
<title>cluster_AppModule_AppComponent_providers</title>
<polygon fill="none" stroke="#000000" points="271,-78 271,-130 401,-130 401,-78 271,-78"/>
</g>
<g id="clust4" class="cluster">
<title>cluster_AppModule_imports</title>
<polygon fill="none" stroke="#000000" points="95,-143 95,-195 271,-195 271,-143 95,-143"/>
</g>
<g id="clust6" class="cluster">
<title>cluster_AppModule_bootstrap</title>
<polygon fill="none" stroke="#000000" points="199,-273 199,-325 323,-325 323,-273 199,-273"/>
</g>
<!-- AppComponent -->
<g id="node1" class="node">
<title>AppComponent</title>
<polygon fill="#ffffb3" stroke="#000000" points="392.9399,-187 287.0601,-187 287.0601,-151 392.9399,-151 392.9399,-187"/>
<text text-anchor="middle" x="340" y="-164.8" font-family="Times,serif" font-size="14.00" fill="#000000">AppComponent</text>
</g>
<!-- AppModule -->
<g id="node2" class="node">
<title>AppModule</title>
<polygon fill="#8dd3c7" stroke="#000000" points="302.6571,-252 299.6571,-256 278.6571,-256 275.6571,-252 219.3429,-252 219.3429,-216 302.6571,-216 302.6571,-252"/>
<text text-anchor="middle" x="261" y="-229.8" font-family="Times,serif" font-size="14.00" fill="#000000">AppModule</text>
</g>
<!-- AppComponent&#45;&gt;AppModule -->
<g id="edge1" class="edge">
<title>AppComponent&#45;&gt;AppModule</title>
<path fill="none" stroke="#000000" d="M295.0544,-187.1061C295.0544,-187.1061 295.0544,-205.991 295.0544,-205.991"/>
<polygon fill="#000000" stroke="#000000" points="291.5544,-205.9909 295.0544,-215.991 298.5544,-205.991 291.5544,-205.9909"/>
</g>
<!-- AppComponent  -->
<g id="node5" class="node">
<title>AppComponent </title>
<polygon fill="#80b1d3" stroke="#000000" points="315.439,-317 206.561,-317 206.561,-281 315.439,-281 315.439,-317"/>
<text text-anchor="middle" x="261" y="-294.8" font-family="Times,serif" font-size="14.00" fill="#000000">AppComponent </text>
</g>
<!-- AppModule&#45;&gt;AppComponent  -->
<g id="edge4" class="edge">
<title>AppModule&#45;&gt;AppComponent </title>
<path fill="none" stroke="#000000" stroke-dasharray="1,5" d="M261,-252.1061C261,-252.1061 261,-270.991 261,-270.991"/>
<polygon fill="#000000" stroke="#000000" points="257.5001,-270.9909 261,-280.991 264.5001,-270.991 257.5001,-270.9909"/>
</g>
<!-- AppService -->
<g id="node3" class="node">
<title>AppService</title>
<ellipse fill="#fdb462" stroke="#000000" cx="336" cy="-104" rx="56.7406" ry="18"/>
<text text-anchor="middle" x="336" y="-99.8" font-family="Times,serif" font-size="14.00" fill="#000000">AppService</text>
</g>
<!-- AppService&#45;&gt;AppComponent -->
<g id="edge2" class="edge">
<title>AppService&#45;&gt;AppComponent</title>
<path fill="none" stroke="#000000" d="M339.9503,-122.1061C339.9503,-122.1061 339.9503,-140.991 339.9503,-140.991"/>
<polygon fill="#000000" stroke="#000000" points="336.4504,-140.9909 339.9503,-150.991 343.4504,-140.991 336.4504,-140.9909"/>
</g>
<!-- AngularPaginatorModule -->
<g id="node4" class="node">
<title>AngularPaginatorModule</title>
<polygon fill="#8dd3c7" stroke="#000000" points="262.5758,-187 259.5758,-191 238.5758,-191 235.5758,-187 103.4242,-187 103.4242,-151 262.5758,-151 262.5758,-187"/>
<text text-anchor="middle" x="183" y="-164.8" font-family="Times,serif" font-size="14.00" fill="#000000">AngularPaginatorModule</text>
</g>
<!-- AngularPaginatorModule&#45;&gt;AppModule -->
<g id="edge3" class="edge">
<title>AngularPaginatorModule&#45;&gt;AppModule</title>
<path fill="none" stroke="#000000" d="M240.8549,-187.1061C240.8549,-187.1061 240.8549,-205.991 240.8549,-205.991"/>
<polygon fill="#000000" stroke="#000000" points="237.3549,-205.9909 240.8549,-215.991 244.3549,-205.991 237.3549,-205.9909"/>
</g>
</g>
</svg>
